<svg xmlns="http://www.w3.org/2000/svg" xmlns:xlink="http://www.w3.org/1999/xlink" version="1.1" x="0px" y="0px" viewBox="0 0 1024 1024" style="enable-background:new 0 0 1024 1024;" xml:space="preserve"><g><g><g><path d="M615.5,823.8c-11.2,0-22.4,0-33.6,0c-27.1,0-54.1,0-81.2,0c-33.7,0-67.4,0-101.1,0c-30.6,0-61.3,0-91.9,0     c-18.4,0-36.7,0-55.1,0c-1.5,0-3.1,0-4.6,0c-0.2,0-0.4,0-0.6,0c-2.8,0-5.6-0.1-8.4-0.3c-1.4-0.1-2.8-0.2-4.1-0.4     c-3.5-0.3,3.9,0.6-0.8-0.1c-5.8-0.9-11.5-2.3-17.1-4.1c-2.6-0.8-5-1.8-7.6-2.7c-2.1-0.8,1.8,0.7,1.7,0.7c-0.4,0-1.4-0.6-1.8-0.8     c-1.4-0.7-2.8-1.3-4.2-2c-5.1-2.6-10.1-5.5-14.8-8.8c-0.6-0.4-3.1-1.7-3.2-2.3c0-0.1,3.1,2.6,1.4,1.1c-0.5-0.4-1-0.8-1.5-1.2     c-2.4-1.9-4.7-4-6.9-6.1c-4-3.8-7.5-7.9-11.1-12.2c-1.4-1.7,1.2,1.5,1.1,1.4c-0.3-0.1-1.3-1.8-1.6-2.1c-0.8-1.1-1.5-2.2-2.2-3.3     c-1.6-2.4-3.1-4.8-4.5-7.3c-1.3-2.3-2.5-4.7-3.7-7.1c-0.4-0.9-2-3.1-1.9-4.2c0-0.1,1.5,3.8,0.7,1.7c-0.3-0.8-0.7-1.7-1-2.5     c-2-5.5-3.7-11.1-4.9-16.8c-0.3-1.3-0.5-2.7-0.8-4c-0.2-0.9-0.3-5.1-0.4-2.1c0,3.1-0.1-1.3-0.2-2.1c-0.1-1.6-0.3-3.2-0.3-4.9     c-0.1-2-0.1-4.1-0.1-6.1c0-2.1,0-4.3,0-6.4c0-25.8,0-51.6,0-77.5c0-31.8,0-63.6,0-95.5c0-9.1,0-18.3,0-27.4c0-1.4,0-2.8,0-4.2     c0-2.6,0.1-5.1,0.3-7.7c0.1-1.4,0.2-2.8,0.3-4.1c0.5-4.7-0.5,2.6,0.1-0.8c1-5.8,2.2-11.5,4-17.2c0.8-2.6,1.7-5.1,2.7-7.6     c1.2-3.3-1.7,3.5,0.3-0.8c0.7-1.4,1.3-2.8,2-4.2c2.6-5.1,5.5-10.1,8.8-14.8c0.4-0.6,1.7-3.1,2.3-3.2c0.1,0-2.6,3.1-1.1,1.4     c0.4-0.5,0.8-1,1.2-1.5c1.8-2.2,3.7-4.3,5.7-6.4c3.9-4.2,8.2-7.8,12.6-11.5c1.7-1.4-1.5,1.2-1.4,1.1c0.1-0.3,1.4-1,1.6-1.2     c1.1-0.8,2.2-1.5,3.2-2.3c2.6-1.7,5.2-3.3,7.9-4.9c2.3-1.3,4.7-2.5,7.1-3.7c1.2-0.6,2.4-1.1,3.6-1.7c2-1-1.7,0.7-1.7,0.7     c0.8-0.2,1.7-0.7,2.5-1c5.5-2.1,11.1-3.7,16.8-5c2.7-0.6,5.4-0.8,8.1-1.4c-0.5,0.1-4.8,0.5-1.2,0.2c0.7-0.1,1.4-0.1,2.1-0.2     c1.6-0.1,3.2-0.3,4.9-0.3c8.1-0.4,16.2-0.1,24.2-0.1c17.8,0,35.6,0,53.4,0c26.3,0,52.7,0,79,0c31.6,0,63.2,0,94.8,0     c34.1,0,68.2,0,102.3,0c33.2,0,66.4,0,99.6,0c29.6,0,59.1,0,88.7,0c22.7,0,45.3,0,68,0c12.6,0,25.3,0,37.9,0c1.7,0,3.3,0,5,0     c10.5,0,20.5-9.2,20-20c-0.5-10.8-8.8-20-20-20c-6.9,0-13.8,0-20.7,0c-18.6,0-37.1,0-55.7,0c-27.1,0-54.1,0-81.2,0     c-32.4,0-64.7,0-97.1,0c-34.5,0-69,0-103.5,0c-33.4,0-66.9,0-100.3,0c-29.2,0-58.4,0-87.6,0c-21.8,0-43.6,0-65.3,0     c-11.2,0-22.4,0-33.5,0c-36.2,0-70.7,13-97.1,37.8c-18.5,17.4-32.3,40.4-38.8,65c-3.5,13.2-4.6,26.7-4.6,40.3c0,25,0,50,0,75.1     c0,32.4,0,64.8,0,97.2c0,22.9-1.4,46.4,4.4,68.8c12.8,49.7,55,90.5,105.6,100.5c17.4,3.4,34.7,2.9,52.2,2.9c25.6,0,51.2,0,76.7,0     c33.7,0,67.4,0,101,0c32,0,64,0,96,0c20.5,0,41,0,61.5,0c2.9,0,5.8,0,8.6,0c10.5,0,20.5-9.2,20-20     C635,832.9,626.7,823.8,615.5,823.8L615.5,823.8z"/></g></g><g><g><path d="M664.3,194.4c24.3,24.3,48.7,48.7,73,73c38.8,38.8,77.6,77.6,116.4,116.4c8.9,8.9,17.9,17.9,26.8,26.8     c0-9.4,0-18.9,0-28.3c-24.3,24.4-48.7,48.7-73,73.1c-38.8,38.9-77.6,77.7-116.4,116.6c-8.9,8.9-17.9,17.9-26.8,26.8     c-7.4,7.4-8,21,0,28.3c8,7.3,20.4,7.9,28.3,0c24.3-24.4,48.7-48.7,73-73.1c38.8-38.9,77.6-77.7,116.4-116.6     c8.9-8.9,17.9-17.9,26.8-26.8c7.6-7.6,7.7-20.6,0-28.3c-24.3-24.3-48.7-48.7-73-73c-38.8-38.8-77.6-77.6-116.4-116.4     c-8.9-8.9-17.9-17.9-26.8-26.8c-7.4-7.4-21-8-28.3,0C657,174.1,656.4,186.5,664.3,194.4L664.3,194.4z"/></g></g></g></svg>