<svg xmlns="http://www.w3.org/2000/svg" xmlns:xlink="http://www.w3.org/1999/xlink" version="1.1" x="0px" y="0px" viewBox="0 0 100 125" style="enable-background:new 0 0 100 100;" xml:space="preserve"><g><path d="M58.4,31.5c0-11.5-9.3-20.8-20.8-20.8S16.7,20,16.7,31.5s9.3,20.8,20.8,20.8S58.4,43,58.4,31.5z M37.6,48.4   c-9.3,0-16.8-7.6-16.8-16.8s7.6-16.8,16.8-16.8s16.8,7.6,16.8,16.8S46.9,48.4,37.6,48.4z"/><path d="M78.3,49.7c-4.6-4.6-12-4.6-16.5,0c-4.6,4.6-4.6,12,0,16.5c2.2,2.2,5.1,3.4,8.3,3.4c3.1,0,6.1-1.2,8.3-3.4   c2.2-2.2,3.4-5.1,3.4-8.3C81.7,54.8,80.5,51.9,78.3,49.7z M75.5,63.4c-3,3-7.9,3-10.9,0c-3-3-3-7.9,0-10.9c1.5-1.5,3.5-2.3,5.4-2.3   c2,0,3.9,0.8,5.4,2.3C78.5,55.5,78.5,60.4,75.5,63.4z"/><path d="M48.4,72c-4.8,0-8.6,3.9-8.6,8.6s3.9,8.6,8.6,8.6s8.6-3.9,8.6-8.6S53.1,72,48.4,72z M48.4,85.3c-2.6,0-4.6-2.1-4.6-4.6   s2.1-4.6,4.6-4.6s4.6,2.1,4.6,4.6S50.9,85.3,48.4,85.3z"/><path d="M37.6,17.7c-7.6,0-13.8,6.2-13.8,13.8c0,0.6,0.4,1,1,1s1-0.4,1-1c0-0.4,0-0.7,0.1-1.1c0.5-5.7,5-10.2,10.7-10.7   c0.3,0,0.7-0.1,1.1-0.1c0.6,0,1-0.4,1-1S38.1,17.7,37.6,17.7z"/></g><text x="0" y="115" fill="#000000" font-size="5px" font-weight="bold" font-family="'Helvetica Neue', Helvetica, Arial-Unicode, Arial, Sans-serif">Created by Sean Maldjian</text><text x="0" y="120" fill="#000000" font-size="5px" font-weight="bold" font-family="'Helvetica Neue', Helvetica, Arial-Unicode, Arial, Sans-serif">from the Noun Project</text></svg>