<svg xmlns="http://www.w3.org/2000/svg" xmlns:xlink="http://www.w3.org/1999/xlink" version="1.1" x="0px" y="0px" viewBox="0 0 1024 1024" style="enable-background:new 0 0 1024 1024;" xml:space="preserve"><g><g><g><path d="M408.5,863.8c11.4,0,22.8,0,34.2,0c27.6,0,55.3,0,82.9,0c34.1,0,68.2,0,102.2,0c30.7,0,61.5,0,92.2,0     c17.6,0,35.2,0,52.8,0c37.5,0,73.3-13.2,100.3-39.6c18.2-17.8,31.6-41,37.5-65.8c3-12.6,3.9-25.4,3.9-38.3c0-25.4,0-50.9,0-76.3     c0-32.3,0-64.5,0-96.8c0-23.6,1.3-47.6-5.3-70.6c-14.3-49.3-57-89.3-108.1-97.8c-13.5-2.2-26.5-2.3-40-2.3c-17.1,0-34.2,0-51.2,0     c-25.9,0-51.8,0-77.6,0c-31.8,0-63.5,0-95.3,0c-34.4,0-68.7,0-103.1,0c-33.8,0-67.6,0-101.4,0c-30,0-60.1,0-90.1,0     c-23.1,0-46.2,0-69.2,0c-13,0-25.9,0-38.9,0c-1.7,0-3.4,0-5.1,0c-10.5,0-20.5,9.2-20,20c0.5,10.8,8.8,20,20,20     c6.8,0,13.5,0,20.3,0c18.1,0,36.3,0,54.4,0c26.6,0,53.2,0,79.8,0c31.7,0,63.5,0,95.2,0c34.1,0,68.2,0,102.4,0     c33.3,0,66.5,0,99.8,0c29.2,0,58.4,0,87.6,0c22.3,0,44.7,0,67,0c12.2,0,24.4,0,36.7,0c3.9,0,7.9,0,11.8,0.3     c1.6,0.1,3.2,0.3,4.8,0.4c3.9,0.4-3.7-0.6,0.1,0c2.9,0.5,5.8,1,8.7,1.7c5.7,1.3,11.2,3.2,16.7,5.2c2.1,0.8-1.8-0.7-1.7-0.7     c0.4,0,1.4,0.6,1.8,0.8c1.2,0.6,2.4,1.1,3.6,1.7c2.6,1.3,5.1,2.6,7.6,4.1c2.5,1.4,4.9,3,7.2,4.6c1.1,0.7,2.1,1.6,3.2,2.3     c1.9,1.2-1.5-1.2-1.4-1.1c0.7,0.2,1.5,1.2,2.1,1.6c4.4,3.6,8.6,7.5,12.4,11.7c1.8,1.9,3.5,4,5.1,6c2.4,2.9-2-2.9,0.1,0.1     c1,1.4,2,2.9,3,4.3c3.1,4.6,5.8,9.4,8.2,14.4c0.6,1.2,1.1,2.4,1.7,3.6c1.2,2.4-1.4-3.6-0.5-1.1c0.2,0.6,0.5,1.2,0.7,1.9     c1,2.7,2,5.5,2.8,8.3c0.8,2.6,1.4,5.2,2,7.9c0.3,1.3,0.6,2.7,0.8,4c0.2,0.9,0.3,1.8,0.5,2.7c0.1,0.8,0.1,3.6,0.1,0.7     c0-3.1,0.1,1.3,0.2,2.1c0.1,1.4,0.2,2.8,0.3,4.2c0.1,2.1,0.2,4.2,0.2,6.3c0,1.5,0,3.1,0,4.6c0,24.3,0,48.6,0,73     c0,32.3,0,64.6,0,97c0,10.2,0,20.3,0,30.5c0,2,0,4,0,6c0,2.7-0.1,5.4-0.3,8.1c-0.1,1.4-0.2,2.8-0.3,4.1c-0.1,0.6-0.3,1.4-0.2,2.1     c0,0,0.6-4.2,0.3-1.9c-0.5,3.1-1.1,6.3-1.8,9.4c-1.3,5.5-3,10.8-5,16c-1.3,3.5,1.5-3.3,0,0.1c-0.7,1.4-1.3,2.8-2,4.2     c-1.3,2.6-2.6,5.1-4.1,7.6c-1.3,2.3-2.8,4.5-4.2,6.7c-0.9,1.3-1.8,2.5-2.7,3.8c-1.2,1.9,1.2-1.5,1.1-1.4     c-0.2,0.7-1.2,1.5-1.6,2.1c-3.5,4.2-7.2,8.2-11.3,12c-2.1,1.9-4.3,3.8-6.5,5.6c-2.9,2.4,2.9-2-0.1,0.1c-1.3,0.9-2.5,1.8-3.8,2.6     c-4.8,3.2-9.7,6.1-14.9,8.5c-1.2,0.6-2.4,1.1-3.6,1.7c-2,1,1.7-0.7,1.7-0.7c-0.6,0.1-1.3,0.5-1.9,0.7c-2.9,1.1-5.9,2.1-8.9,3     c-5.5,1.6-11.1,2.3-16.6,3.6c0,0,4.2-0.5,1.9-0.3c-0.7,0.1-1.4,0.2-2.1,0.2c-1.6,0.2-3.2,0.3-4.9,0.4c-2.1,0.1-4.2,0.2-6.3,0.2     c-0.3,0-0.5,0-0.8,0c-1.6,0-3.2,0-4.8,0c-7.2,0-14.4,0-21.5,0c-25.8,0-51.6,0-77.4,0c-33.5,0-66.9,0-100.4,0c-31.5,0-63,0-94.6,0     c-20,0-40,0-60.1,0c-2.8,0-5.7,0-8.5,0c-10.5,0-20.5,9.2-20,20C389,854.6,397.3,863.8,408.5,863.8L408.5,863.8z"/></g></g><g><g><path d="M331.4,166.1c-24.3,24.3-48.7,48.7-73,73c-38.8,38.8-77.6,77.6-116.4,116.4c-8.9,8.9-17.9,17.9-26.8,26.8     c-7.6,7.6-7.6,20.6,0,28.3c24.3,24.4,48.7,48.7,73,73.1c38.8,38.9,77.6,77.7,116.4,116.6c8.9,8.9,17.9,17.9,26.8,26.8     c7.4,7.4,21,8,28.3,0c7.3-8,7.9-20.4,0-28.3c-24.3-24.4-48.7-48.7-73-73.1c-38.8-38.9-77.6-77.7-116.4-116.6     c-8.9-8.9-17.9-17.9-26.8-26.8c0,9.4,0,18.9,0,28.3c24.3-24.3,48.7-48.7,73-73c38.8-38.8,77.6-77.6,116.4-116.4     c8.9-8.9,17.9-17.9,26.8-26.8c7.4-7.4,8-21,0-28.3C351.7,158.8,339.3,158.2,331.4,166.1L331.4,166.1z"/></g></g></g></svg>