<svg xmlns="http://www.w3.org/2000/svg" xmlns:xlink="http://www.w3.org/1999/xlink" version="1.1" x="0px" y="0px" viewBox="0 0 100 125" enable-background="new 0 0 100 100" xml:space="preserve"><path d="M94.3,39.3c1-1,1-2.6,0-3.5L71.8,13.2c-1-1-2.6-1-3.5,0L5.7,75.7c-1,1-1,2.6,0,3.5l15,15c0.5,0.5,1.1,0.7,1.8,0.7H30h7.5h55  c1.4,0,2.5-1.1,2.5-2.5S93.9,90,92.5,90h-49L94.3,39.3z M70,18.5l19,19L47.5,79l-19-19L70,18.5z M30,90h-6.5L11,77.5l14-14l19,19  L36.5,90H30z"/><text x="0" y="115" fill="#000000" font-size="5px" font-weight="bold" font-family="'Helvetica Neue', Helvetica, Arial-Unicode, Arial, Sans-serif">Created by Arthur Shlain</text><text x="0" y="120" fill="#000000" font-size="5px" font-weight="bold" font-family="'Helvetica Neue', Helvetica, Arial-Unicode, Arial, Sans-serif">from the Noun Project</text></svg>