<svg xmlns:dc="http://purl.org/dc/elements/1.1/" xmlns:cc="http://creativecommons.org/ns#" xmlns:rdf="http://www.w3.org/1999/02/22-rdf-syntax-ns#" xmlns:svg="http://www.w3.org/2000/svg" xmlns="http://www.w3.org/2000/svg" xmlns:sodipodi="http://sodipodi.sourceforge.net/DTD/sodipodi-0.dtd" xmlns:inkscape="http://www.inkscape.org/namespaces/inkscape" version="1.1" x="0px" y="0px" viewBox="0 0 100 100"><g transform="translate(0,-952.36218)"><path style="text-indent:0;text-transform:none;direction:ltr;block-progression:tb;baseline-shift:baseline;color:#000000;enable-background:accumulate;" d="m 14.04,973.36234 c -4.4082,0 -8.0397001,3.62072 -8.0397001,8.03969 l 0,41.92007 c 0,4.4122 3.6274001,8.0399 8.0397001,8.0399 l 71.93,0 c 4.4123,0 8.0297,-3.6317 8.0297,-8.0399 l 0,-41.92007 c 0,-4.41498 -3.6215,-8.03969 -8.0297,-8.03969 l -71.93,0 z m 0,3.99969 71.93,0 c 2.2318,0 4.0303,1.79498 4.0303,4.04 l 0,41.92007 c 0,2.2317 -1.8026,4.0403 -4.0303,4.0403 l -71.93,0 c -2.2277,0 -4.0403,-1.8126 -4.0403,-4.0403 l 0,-41.92007 c 0,-2.24102 1.8085,-4.04 4.0403,-4.04 z" fill="#000000" fill-opacity="1" fill-rule="evenodd" stroke="none" marker="none" visibility="visible" display="inline" overflow="visible"/></g></svg>