<svg xmlns="http://www.w3.org/2000/svg" xmlns:xlink="http://www.w3.org/1999/xlink" version="1.1" x="0px" y="0px" viewBox="0 0 100 100" enable-background="new 0 0 100 100" xml:space="preserve"><g><g><path fill-rule="evenodd" clip-rule="evenodd" d="M71.326,83.785c0,3.817-2.968,6.913-6.628,6.913H36.302    c-3.66,0-6.627-3.096-6.627-6.913l-5.686-59.349h-3.787l5.681,62.49c0,4.183,3.392,7.574,7.575,7.574h34.085    c4.183,0,7.574-3.392,7.574-7.574l5.681-62.49h-3.787L71.326,83.785z M52.394,81.245V33.904c0-1.046-0.847-1.894-1.894-1.894    c-1.046,0-1.894,0.848-1.894,1.894v47.341c0,1.046,0.848,1.894,1.894,1.894C51.547,83.139,52.394,82.291,52.394,81.245z     M63.755,81.245V33.904c0-1.046-0.847-1.894-1.894-1.894c-1.046,0-1.894,0.848-1.894,1.894v47.341    c0,1.046,0.848,1.894,1.894,1.894C62.908,83.139,63.755,82.291,63.755,81.245z M41.032,81.245V33.904    c0-1.046-0.848-1.894-1.894-1.894c-1.045,0-1.894,0.848-1.894,1.894v47.341c0,1.046,0.848,1.894,1.894,1.894    C40.184,83.139,41.032,82.291,41.032,81.245z M78.904,13.074H61.861c0,0,0-1.226,0-1.894c0-3.137-2.544-5.681-5.681-5.681H44.819    c-3.138,0-5.681,2.543-5.681,5.681c0,0.668,0,1.894,0,1.894H22.096c-2.091,0-3.787,1.696-3.787,3.788    c0,2.091,1.696,3.787,3.787,3.787h56.809c2.092,0,3.787-1.696,3.787-3.787C82.691,14.77,80.996,13.074,78.904,13.074z     M42.925,13.074c0-3.787,3.788-3.787,3.616-3.787h7.918c-0.172,0,3.615,0,3.615,3.787H42.925z"/></g></g></svg>