<svg xmlns="http://www.w3.org/2000/svg" xmlns:xlink="http://www.w3.org/1999/xlink" version="1.1" x="0px" y="0px" viewBox="0 0 64 64" enable-background="new 0 0 64 64" xml:space="preserve"><g><path fill="#000000" d="M56.52,6.157c-1.647-3.761-5.217-6.007-9.551-6.007c-0.097,0-0.194,0.001-0.284,0.003   c-2.394,0.018-4.73,1.041-6.577,2.88l-1.583,1.574c-3.802,3.78-6.239,6.196-10.095,10.05c-0.292,0.291-0.452,0.679-0.452,1.091   c0,0.412,0.16,0.8,0.451,1.091c0.583,0.583,1.6,0.583,2.182,0.001c3.854-3.851,6.29-6.266,10.09-10.045l1.583-1.575   c1.272-1.266,2.848-1.97,4.446-1.982l0.207-0.002c3.09,0,5.616,1.554,6.755,4.156c1.172,2.687,0.599,5.669-1.496,7.782   l-0.878,0.886c-2.453-6.925-7.917-7.149-7.984-7.161c-0.846-0.152-1.637,0.419-1.787,1.242c-0.153,0.834,0.402,1.639,1.236,1.794   c0.245,0.046,5.024,0.215,6.169,7.277c0.023,0.302,0.135,0.588,0.318,0.821c0.027,0.035,0.054,0.068,0.068,0.082   c0.017,0.023,0.035,0.045,0.055,0.065l0.041,0.035c0.058,0.055,0.121,0.105,0.207,0.166c0.258,0.173,0.554,0.264,0.855,0.264   c0.079,0,0.158-0.006,0.238-0.018c0.401-0.062,0.754-0.275,0.997-0.6l2.657-2.681C57.392,14.317,58.209,10.03,56.52,6.157z"/><path fill="#000000" d="M44.886,22.819c-4.974,5.001-8.531,8.55-12.921,12.898c-0.409,0.404-1.068,0.758-1.809,0.971   c-3.214,0.924-6.502,1.808-9.681,2.662l-2.833,0.763c-0.015,0.004-0.029,0.008-0.043,0.012c0.006-0.025,0.013-0.052,0.02-0.078   l0.566-2.137c0.914-3.456,1.86-7.031,2.858-10.524c0.022-0.078,0.049-0.156,0.078-0.236l6.502,7.264   c0.549,0.607,1.573,0.655,2.179,0.105c0.63-0.572,0.677-1.55,0.105-2.179l-6.827-7.623c-0.604-0.664-1.51-1.001-2.406-0.885   c-0.895,0.115-1.679,0.661-2.097,1.46c-0.213,0.408-0.382,0.826-0.502,1.243c-1.008,3.527-1.957,7.116-2.875,10.585l-0.566,2.137   c-0.167,0.631-0.609,2.307,0.468,3.38c0.461,0.459,1.076,0.692,1.83,0.692c0.571,0,1.137-0.135,1.512-0.236l2.838-0.764   c3.19-0.858,6.489-1.745,9.724-2.674c0.718-0.206,2.078-0.707,3.127-1.744c4.36-4.317,7.923-7.871,12.939-12.915   c0.291-0.292,0.45-0.68,0.449-1.092c-0.001-0.412-0.162-0.799-0.455-1.09C46.484,22.23,45.466,22.235,44.886,22.819z"/><path fill="#000000" d="M25.532,53.172c-0.424-0.25-0.824-0.486-1.202-0.724c-2.859-1.797-5.848-3.232-8.886-4.269   c-1.37-0.467-5.008-1.708-5.652-3.28c-0.15-0.365-0.109-0.742,0.132-1.223c0.299-0.596,1.097-0.937,1.425-1.055   c0.388-0.139,0.698-0.422,0.874-0.795c0.175-0.373,0.195-0.792,0.056-1.18c-0.22-0.61-0.804-1.02-1.452-1.02   c-0.178,0-0.353,0.031-0.522,0.091c-1.029,0.37-2.408,1.118-3.139,2.576c-0.649,1.294-0.725,2.564-0.229,3.775   c1.176,2.872,5.3,4.277,7.515,5.032c2.806,0.956,5.578,2.289,8.236,3.959c0.416,0.261,0.844,0.514,1.296,0.781   c1.622,0.957,3.299,1.946,4.18,3.254c0.395,0.587,0.394,1.056-0.001,1.395c-0.204,0.175-0.487,0.276-0.776,0.276   c-0.38,0-0.763-0.168-1.107-0.486c-0.6-0.556-1.625-0.515-2.18,0.085c-0.577,0.625-0.539,1.603,0.086,2.181   c0.923,0.853,2.026,1.304,3.189,1.304c1.038,0,2.031-0.361,2.797-1.016c1.334-1.144,2.023-3.276,0.553-5.461   C29.455,55.486,27.381,54.263,25.532,53.172z"/><circle fill="#000000" cx="25.963" cy="20.4" r="1.531"/></g></svg>